<?xml version='1.0' encoding='utf-8'?>
<svg xmlns="http://www.w3.org/2000/svg" xmlns:ns1="http://www.inkscape.org/namespaces/inkscape" viewBox="84.80298152 9.25797032 28.44599096 28.44599096" width="100" height="100" version="1.1"><g ns1:label="Layer 1" ns1:groupmode="layer" id="layer1" transform="translate(0,7.8000168)"><g id="g3003"><g id="g1318">
        <path id="path137" d="m 99.025617,5.897865 a 0.92613611,0.92613611 0 0 0 -0.92604,0.926041 0.92613611,0.92613611 0 0 0 0.92654,0.926042 0.92613611,0.92613611 0 0 0 0.92604,-0.926042 0.92613611,0.92613611 0 0 0 -0.92654,-0.926041 z m -1.14671,1.779219 c -4.92458,-0.0821 -3.5951,4.773081 -6.36963,3.720703 3.1628,3.45109 2.84316,-2.684393 6.36963,-3.720703 z m 2.293913,0 c 3.5265,1.03631 3.20686,7.171793 6.36964,3.720703 -2.7745,1.052378 -1.44502,-3.802806 -6.36964,-3.720703 z m -1.428853,0.638723 c -2.83303,0.124444 -3.22292,4.581644 -4.80177,4.661731 1.19333,0.890878 2.86722,0.435813 3.40495,-0.156581 0.40667,0.474165 1.04693,0.787294 1.67847,0.736907 0,0 0,0 0,0 0.63156,0.05039 1.271803,-0.262744 1.678463,-0.736907 0.53774,0.592394 2.21163,1.047459 3.40495,0.156581 -1.62967,-0.08267 -1.99287,-4.828516 -5.083413,-4.659665 -0.0966,-0.0053 -0.19077,-0.0061 -0.28215,-0.0021 z m -4.99089,5.512324 c -1.43203,0.72999 -1.16086,3.437493 -3.48041,3.153812 3.07454,3.017123 3.12288,-1.276318 4.93665,-2.814299 -0.64741,0.134064 -1.00507,-0.0574 -1.45624,-0.339513 z m 10.545083,0 c -0.4512,0.282109 -0.80833,0.473577 -1.45572,0.339513 1.81378,1.537981 1.86209,5.831422 4.93665,2.814299 -2.31955,0.283681 -2.0489,-2.423822 -3.48093,-3.153812 z m -7.270363,0.122989 c -2.68345,1.050499 -2.16135,4.198297 -4.44521,4.775419 1.46526,1.089589 2.46115,0.502955 3.48041,0 0.93273,0.755129 1.89304,0.883074 2.96262,5.29e-4 1.069583,0.882555 2.029883,0.754611 2.962623,-5.29e-4 1.01922,0.502955 2.01514,1.089589 3.48041,0 -2.28386,-0.577122 -1.76176,-3.72492 -4.44522,-4.775419 -0.68185,0.531571 -1.308553,0.596646 -1.997313,0.61495 0,-8e-6 0,10e-6 0,0 -0.68874,-0.01831 -1.31543,-0.08338 -1.99729,-0.61495 z m 1.99832,5.799648 c 0,0 0,5.29e-4 0,5.29e-4 -0.10128,0.217167 -0.23154,0.345453 -0.36277,0.449069 -0.0437,0.03449 -0.0877,0.06623 -0.13073,0.09767 -0.0431,0.03143 -0.0861,0.06297 -0.12663,0.09612 -0.0405,0.03316 -0.0792,0.06887 -0.11523,0.108519 -0.36065,0.397653 -0.44399,1.241378 0.73536,4.927865 1.3e-4,2.64e-4 0,5.29e-4 0,0.0011 1.179703,-3.68735 1.095533,-4.531209 0.73485,-4.928899 -0.036,-0.03967 -0.0747,-0.07534 -0.11525,-0.108519 0,0 0,0 0,0 -0.0405,-0.03316 -0.0825,-0.06469 -0.12557,-0.09612 0,0 0,0 0,0 -0.0431,-0.03143 -0.087,-0.0632 -0.13073,-0.09767 0,0 0,0 0,0 -0.0437,-0.0345 -0.0868,-0.07189 -0.12917,-0.114207 -0.0849,-0.08487 -0.16497,-0.190312 -0.23257,-0.335378 z m -3.53208,0.03824 c -0.43061,0.199147 -0.71268,0.273569 -1.00304,0.316259 0.27316,1.39604 1.70352,2.888676 3.24115,3.506245 l -0.29353,-1.072285 c -0.95221,-0.604268 -1.74146,-1.739019 -1.94458,-2.750219 z m 7.063133,0 c -0.20309,1.0112 -0.99235,2.145951 -1.94458,2.750219 l -0.293,1.072285 c 1.53763,-0.617569 2.96802,-2.110205 3.24115,-3.506245 -0.29036,-0.04269 -0.57296,-0.117112 -1.00357,-0.316259 z m -9.070763,0.504878 c -0.6027,0.228785 -0.67641,0.470342 -0.66352,0.573609 0.38663,1.777507 2.95521,3.470121 5.28444,4.322217 l -0.14211,-0.360185 c -2.04271,-1.114825 -3.80735,-2.098178 -4.47881,-4.535641 z m 11.078923,0 c -0.67146,2.437463 -2.4361,3.420816 -4.47879,4.535641 l -0.142633,0.360185 c 2.329233,-0.852096 4.897783,-2.54471 5.284413,-4.322217 0.013,-0.103267 -0.0603,-0.344824 -0.66299,-0.573609 z" style="fill:#000000;fill-opacity:1;fill-rule:nonzero;stroke:none;stroke-width:0.0530441;stroke-linejoin:round;stroke-miterlimit:4;stroke-dasharray:none;stroke-dashoffset:0;stroke-opacity:1" />
        <path id="path1301" d="m 99.026758,4.443655 c -6.203059,8e-6 -11.238069,5.035526 -11.238069,11.23859 0,6.203071 5.03501,11.236 11.238069,11.236008 6.203082,5e-6 11.236532,-5.032929 11.236532,-11.236008 0,-6.203072 -5.03345,-11.238595 -11.236532,-11.23859 z m 0,0.502296 c 5.932882,-6e-6 10.736302,4.803447 10.736302,10.736294 0,5.932855 -4.80344,10.736298 -10.736302,10.736298 -5.932829,-6e-6 -10.736289,-4.803432 -10.736289,-10.736298 1e-5,-5.932861 4.80342,-10.736289 10.736289,-10.736294 z" style="fill:#000000;fill-opacity:1;fill-rule:nonzero;stroke:none;stroke-width:0.0811389" />
      </g>
      </g></g></svg>