<?xml version='1.0' encoding='utf-8'?>
<svg xmlns="http://www.w3.org/2000/svg" xmlns:ns1="http://www.inkscape.org/namespaces/inkscape" viewBox="59.93183452 9.25805332 28.44599096 28.44599096" width="100" height="100" version="1.1"><g ns1:label="Layer 1" ns1:groupmode="layer" id="layer1" transform="translate(0,7.8000168)"><g id="g3003"><g id="g1313">
        <path id="path129" d="m 74.15475,6.7668904 c -9.4e-4,0.01128 -0.007,0.02406 -0.01,0.03535 a 8.9000749,8.9000749 0 0 0 -0.007,-6.35e-4 c -0.0133,0.09145 -0.0476,0.184001 -0.11904,0.279673 -0.0803,0.10764 -0.19299,0.218828 -0.32679,0.336106 -0.26751,0.234604 -0.62019,0.492665 -0.97483,0.793127 -0.26602,0.225333 -0.53224,0.474386 -0.76398,0.754685 l -6.4e-4,6.36e-4 c -0.0772,0.09328 -0.15026,0.18968 -0.21828,0.290214 -0.0679,0.100836 -0.13094,0.205543 -0.1879,0.313778 h -6.3e-4 c -0.0569,0.10806 -0.10632,0.221231 -0.1482,0.337963 -0.084,0.2338316 -0.13691,0.4851626 -0.14759,0.7559226 -0.23984,-0.126133 -0.48353,-0.206428 -0.72803,-0.250526 -0.2445,-0.0441 -0.4898,-0.05207 -0.73236,-0.03473 -0.48512,0.03467 -0.95957,0.17177 -1.39712,0.328661 -0.43753,0.156895 -0.83819,0.333349 -1.17511,0.447725 -0.16853,0.05716 -0.32057,0.09905 -0.45394,0.11472 -0.12289,0.01441 -0.22488,-2.57e-4 -0.31254,-0.03782 a 8.9000749,8.9000749 0 0 0 -0.002,0.0037 c -0.007,-0.0034 -0.0175,-0.0032 -0.0248,-0.0068 0.007,0.0046 0.0122,0.01289 0.0186,0.01798 a 8.9000749,8.9000749 0 0 0 -0.002,0.0037 c 0.0763,0.05711 0.1402,0.137535 0.18913,0.251149 0.053,0.123323 0.093,0.276332 0.12774,0.450824 0.0694,0.348981 0.11676,0.784102 0.19968,1.241473 0.0208,0.114336 0.044,0.229908 0.0701,0.346028 v 6.34e-4 c 0.0782,0.348225 0.1842,0.700193 0.34354,1.028154 0.10632,0.218729 0.23642,0.426698 0.39687,0.616398 0.16044,0.189696 0.35192,0.360768 0.58106,0.505396 -0.22913,0.144622 -0.4206,0.315678 -0.58104,0.505384 -0.1604,0.189728 -0.29004,0.398253 -0.39626,0.617017 -0.15936,0.328111 -0.26589,0.679241 -0.34417,1.027535 l -6.3e-4,6.34e-4 c -0.026,0.115908 -0.0488,0.231832 -0.0695,0.346028 -0.0414,0.228698 -0.0738,0.452072 -0.10476,0.661663 -0.0308,0.209391 -0.0602,0.405495 -0.0949,0.57981 -0.0347,0.174513 -0.0748,0.328088 -0.12776,0.451446 -0.0476,0.110688 -0.11028,0.187862 -0.18417,0.244945 a 8.9000749,8.9000749 0 0 0 0.002,0.0056 c -0.008,0.0067 -0.0142,0.01724 -0.0229,0.02296 0.01,-0.0044 0.0212,-0.0053 0.031,-0.0092 a 8.9000749,8.9000749 0 0 0 0.002,0.0049 c 0.0865,-0.03538 0.18505,-0.05132 0.3051,-0.0372 0.13337,0.01568 0.28608,0.05692 0.45455,0.114096 0.33692,0.114372 0.73759,0.292072 1.17512,0.448964 0.43754,0.156896 0.91201,0.293364 1.39712,0.328044 0.12111,0.0086 0.24334,0.0108 0.36526,0.0056 0.12215,-0.0054 0.24422,-0.01825 0.36648,-0.04031 0.24451,-0.0441 0.48882,-0.12439 0.72864,-0.250526 0.005,0.135404 0.0215,0.265934 0.0466,0.391915 0.27508,1.384437 1.65984,2.209877 2.39551,2.855017 0.0668,0.05864 0.12811,0.116436 0.18293,0.172394 0.0545,0.05579 0.10332,0.110064 0.14326,0.163712 0.0713,0.09565 0.10572,0.188208 0.11904,0.279673 a 8.9000749,8.9000749 0 0 0 0.006,-6.35e-4 c 0.001,0.01164 0.008,0.02371 0.01,0.03535 9.6e-4,-0.01128 0.007,-0.02353 0.01,-0.03473 a 8.9000749,8.9000749 0 0 0 0.007,6.35e-4 c 0.0133,-0.09146 0.047,-0.184015 0.11844,-0.279686 0.0803,-0.10764 0.19237,-0.219448 0.32618,-0.336725 0.26749,-0.234611 0.62141,-0.492659 0.97606,-0.793128 0.0884,-0.07496 0.17684,-0.153337 0.26416,-0.233785 0.0877,-0.08082 0.17411,-0.164201 0.25798,-0.251148 0.16738,-0.173508 0.3244,-0.359224 0.46074,-0.560585 0.13634,-0.201361 0.25168,-0.418776 0.33611,-0.652364 0.042,-0.116916 0.0761,-0.238182 0.10104,-0.364007 0.0251,-0.125772 0.0413,-0.25588 0.0466,-0.391297 0.11544,0.06071 0.23163,0.110304 0.3485,0.150688 0.12591,0.04356 0.25218,0.07636 0.37889,0.09922 0.24451,0.0441 0.48979,0.05268 0.73236,0.03535 0.36367,-0.026 0.72208,-0.109476 1.06289,-0.215802 v -6.34e-4 c 0.11364,-0.03548 0.22548,-0.07302 0.33486,-0.112236 0.43754,-0.156893 0.83759,-0.333963 1.1745,-0.448344 0.16851,-0.05716 0.32118,-0.09842 0.45455,-0.114096 0.12307,-0.01445 0.22479,8.5e-5 0.31254,0.03782 a 8.9000749,8.9000749 0 0 0 0.002,-0.0037 c 0.007,0.0034 0.017,0.0032 0.0242,0.0068 -0.007,-0.0046 -0.0121,-0.01252 -0.018,-0.01736 a 8.9000749,8.9000749 0 0 0 0.002,-0.0031 c -0.0767,-0.05711 -0.13943,-0.138485 -0.18848,-0.25238 -0.053,-0.123322 -0.0936,-0.276955 -0.12836,-0.451443 -0.0694,-0.348977 -0.11616,-0.784108 -0.19906,-1.241476 -0.0622,-0.342884 -0.14466,-0.697992 -0.2716,-1.038695 l -6.4e-4,-6.34e-4 c -0.0424,-0.113616 -0.0895,-0.225498 -0.14263,-0.334865 -0.10632,-0.218725 -0.2358,-0.427317 -0.39625,-0.617014 -0.16044,-0.189696 -0.35128,-0.360146 -0.58043,-0.504776 0.1146,-0.07229 0.2198,-0.151524 0.31626,-0.236265 0.0965,-0.08474 0.18391,-0.174918 0.26417,-0.269751 0.08,-0.09472 0.15312,-0.194139 0.2189,-0.297037 l 6.4e-4,-6.35e-4 c 0.0664,-0.102828 0.12501,-0.209531 0.17734,-0.319361 0.0533,-0.109056 0.0998,-0.220812 0.14201,-0.334242 l 6.4e-4,-6.35e-4 c 0.0424,-0.113592 0.0794,-0.228343 0.11292,-0.344163 0.0666,-0.231706 0.11676,-0.466466 0.15812,-0.695151 0.0414,-0.228695 0.0742,-0.451511 0.10476,-0.661044 0.0308,-0.209611 0.0594,-0.405949 0.0942,-0.580431 0.0347,-0.174512 0.0752,-0.32685 0.12838,-0.450206 0.0476,-0.110688 0.11028,-0.188481 0.18416,-0.245568 a 8.9000749,8.9000749 0 0 0 -0.002,-0.0049 c 0.008,-0.0068 0.0154,-0.01715 0.0242,-0.02296 -0.01,0.0047 -0.0217,0.0052 -0.0317,0.0092 a 8.9000749,8.9000749 0 0 0 -0.002,-0.0056 c -0.0865,0.03539 -0.18565,0.05131 -0.30571,0.03721 -0.13337,-0.01568 -0.28546,-0.05753 -0.45392,-0.11472 C 80.75379,11.041052 80.35315,10.864607 79.9156,10.707714 79.58744,10.590042 79.23865,10.482966 78.88,10.42246 78.76048,10.40224 78.63975,10.3871 78.51848,10.37843 c -0.24256,-0.01734 -0.48847,-0.0088 -0.73297,0.03535 -0.12207,0.02203 -0.24335,0.05311 -0.36464,0.09426 -0.12162,0.04122 -0.24271,0.09251 -0.36277,0.155647 -0.005,-0.135209 -0.0216,-0.265651 -0.0466,-0.391283 -0.025,-0.125914 -0.0589,-0.246967 -0.10104,-0.3640066 -0.0421,-0.117156 -0.0917,-0.229905 -0.14821,-0.338585 -0.0564,-0.108504 -0.11988,-0.211849 -0.1879,-0.312537 -0.27259,-0.402787 -0.62824,-0.745662 -0.98288,-1.046137 -0.35464,-0.300486 -0.70793,-0.55915 -0.97544,-0.793751 -0.13377,-0.1173 -0.24654,-0.228438 -0.3268,-0.336105 -0.0713,-0.09564 -0.10512,-0.187611 -0.11844,-0.279051 a 8.9000749,8.9000749 0 0 0 -0.007,-6.35e-4 c -0.001,-0.01164 -0.008,-0.02315 -0.008,-0.03473 z m 2.0346,0.262928 c -0.006,0.05165 0.0142,0.104808 0.0558,0.160611 0.0468,0.06277 0.11292,0.127539 0.19101,0.195957 0.15601,0.136824 0.36245,0.288615 0.56927,0.46385 0.20683,0.175237 0.414,0.374674 0.57298,0.609573 0.0794,0.117456 0.14694,0.243786 0.19595,0.38013 0.0491,0.136361 0.0793,0.282382 0.0856,0.440284 0.13977,-0.07361 0.28219,-0.120001 0.42479,-0.145726 0.1426,-0.02572 0.2858,-0.03058 0.42726,-0.02048 0.28292,0.02022 0.55966,0.100116 0.81484,0.191617 0.25516,0.0915 0.48872,0.194358 0.68522,0.261071 0.0983,0.03334 0.187,0.05784 0.26479,0.06697 0.0656,0.0077 0.11916,-0.0022 0.15937,-0.03102 -0.5989,-0.640635 -1.2794,-1.182138 -2.0284,-1.617265 -0.75209,-0.434156 -1.56237,-0.755034 -2.41846,-0.955602 z m -4.06672,0.0043 c -0.85427,0.198358 -1.66341,0.516452 -2.41474,0.947541 -0.75204,0.434247 -1.43534,0.975535 -2.03708,1.616647 0.0419,0.03058 0.0988,0.04033 0.16806,0.03224 0.0778,-0.0091 0.16591,-0.03425 0.26416,-0.0676 0.1965,-0.0667 0.43132,-0.169577 0.68648,-0.261071 0.25516,-0.0915 0.53128,-0.171384 0.81421,-0.191615 0.14148,-0.01008 0.28466,-0.0053 0.42726,0.02048 0.14261,0.02572 0.2849,0.07218 0.42477,0.145726 0.006,-0.157886 0.0365,-0.303958 0.0856,-0.440284 0.0491,-0.136334 0.1164,-0.26272 0.19596,-0.38013 0.15904,-0.234879 0.36675,-0.434974 0.57362,-0.610196 0.20677,-0.175266 0.4126,-0.325793 0.56864,-0.462607 0.078,-0.06841 0.14359,-0.133144 0.19038,-0.195954 0.0391,-0.05327 0.0572,-0.10398 0.0527,-0.153172 z m -6.48084,6.0876956 c -0.25535,0.838995 -0.38463,1.69921 -0.38696,2.565426 5e-5,0.868404 0.12702,1.730568 0.38138,2.572246 0.0474,-0.02101 0.084,-0.0651 0.1116,-0.128984 0.0306,-0.07213 0.0541,-0.161154 0.0744,-0.262929 0.0404,-0.203533 0.0682,-0.457572 0.11652,-0.724297 0.0482,-0.266766 0.11796,-0.546059 0.24184,-0.801192 0.0624,-0.127308 0.13808,-0.24884 0.2313,-0.359668 0.0936,-0.110652 0.20432,-0.210841 0.33797,-0.295176 -0.13365,-0.08423 -0.24501,-0.183312 -0.33858,-0.293935 -0.0936,-0.11064 -0.16933,-0.232118 -0.23131,-0.359667 -0.12394,-0.25513 -0.19288,-0.535077 -0.24122,-0.801812 -0.0484,-0.266731 -0.0761,-0.52077 -0.11652,-0.724297 -0.0203,-0.101748 -0.0434,-0.190988 -0.0744,-0.262931 -0.0262,-0.06073 -0.0611,-0.102228 -0.10608,-0.122784 z m 17.0309,6.36e-4 c -0.0475,0.02105 -0.0835,0.06503 -0.111,0.128987 -0.0306,0.07213 -0.0541,0.161151 -0.0744,0.262929 -0.0404,0.203533 -0.0676,0.457572 -0.11592,0.724297 -0.0484,0.266709 -0.11856,0.546065 -0.24247,0.801192 -0.0624,0.127304 -0.13809,0.249459 -0.2313,0.360285 -0.0936,0.110664 -0.20429,0.209614 -0.33797,0.293936 0.13366,0.08423 0.2444,0.184554 0.33797,0.295177 0.0936,0.110628 0.16994,0.232109 0.23192,0.359667 0.12395,0.255126 0.19289,0.535083 0.24123,0.801812 0.0484,0.266737 0.0768,0.52015 0.11724,0.723676 0.0203,0.101748 0.0422,0.19099 0.0732,0.262932 0.0262,0.06073 0.0623,0.102216 0.10728,0.122783 0.25534,-0.838993 0.38398,-1.699208 0.38632,-2.565425 h -6.3e-4 c -5e-5,-0.868203 -0.12713,-1.730749 -0.38137,-2.572248 z m -8.51794,0.03968 a 2.5256916,2.5256916 0 0 1 2.52574,2.525738 2.5256916,2.5256916 0 0 1 -2.52574,2.525738 2.5256916,2.5256916 0 0 1 -2.52573,-2.525738 2.5256916,2.5256916 0 0 1 2.52573,-2.525738 z m 0,0.680268 a 1.8451175,1.8451175 0 0 0 -1.84484,1.84547 1.8451175,1.8451175 0 0 0 1.84484,1.84485 1.8451175,1.8451175 0 0 0 1.84547,-1.84485 1.8451175,1.8451175 0 0 0 -1.84547,-1.84547 z m -6.32209,7.905875 c -0.0656,-0.0077 -0.11844,0.0022 -0.15875,0.03102 0.59891,0.640629 1.27816,1.182138 2.02716,1.617265 0.75209,0.434157 1.5636,0.755654 2.4197,0.956222 0.006,-0.05165 -0.0149,-0.105432 -0.0564,-0.16123 -0.0468,-0.06277 -0.11232,-0.126922 -0.19038,-0.19534 -0.15602,-0.136822 -0.36306,-0.288607 -0.56988,-0.463848 -0.20684,-0.175231 -0.41339,-0.374672 -0.57238,-0.609574 -0.0794,-0.117456 -0.14693,-0.244406 -0.19596,-0.380752 -0.0491,-0.136361 -0.0799,-0.28176 -0.0862,-0.439662 -0.13978,0.07361 -0.28219,0.119388 -0.42478,0.145108 -0.1426,0.02572 -0.2858,0.03118 -0.42726,0.02108 -0.28292,-0.02022 -0.55965,-0.100116 -0.81483,-0.191618 -0.25518,-0.0915 -0.48873,-0.194364 -0.68523,-0.26107 -0.0983,-0.03334 -0.18699,-0.05845 -0.26479,-0.0676 z m 12.63861,0.0037 c -0.0778,0.0091 -0.16715,0.03362 -0.26541,0.06697 -0.1965,0.0667 -0.43008,0.169573 -0.68523,0.261071 -0.25517,0.0915 -0.53192,0.171383 -0.81483,0.191614 -0.14149,0.01008 -0.28467,0.0053 -0.42727,-0.02045 -0.14261,-0.02572 -0.28428,-0.07218 -0.42415,-0.14573 -0.006,0.15789 -0.0371,0.303944 -0.0862,0.440284 -0.0491,0.136342 -0.1164,0.263345 -0.19596,0.380753 -0.15903,0.234871 -0.36685,0.434299 -0.57361,0.609569 -0.20688,0.175213 -0.41261,0.325794 -0.56865,0.462607 -0.078,0.06841 -0.14358,0.133772 -0.19038,0.196577 -0.0391,0.05327 -0.0574,0.104292 -0.0533,0.153171 0.85426,-0.198361 1.66339,-0.517068 2.41474,-0.948159 0.75203,-0.434246 1.43597,-0.974916 2.03771,-1.616025 -0.0419,-0.03058 -0.0983,-0.04034 -0.16744,-0.03224 z" style="fill:#000000;fill-opacity:1;stroke:none;stroke-width:0.0468;stroke-linecap:butt;stroke-linejoin:miter;stroke-miterlimit:4;stroke-dasharray:none;stroke-opacity:1" />
        <path id="path1303" d="m 74.15561,4.4437382 c -6.20306,8e-6 -11.23807,5.035526 -11.23807,11.2385898 0,6.203071 5.03501,11.236 11.23807,11.236008 6.20308,5e-6 11.23653,-5.032929 11.23653,-11.236008 0,-6.2030718 -5.03345,-11.2385948 -11.23653,-11.2385898 z m 0,0.502296 c 5.93288,-6e-6 10.7363,4.803447 10.7363,10.7362938 0,5.932855 -4.80344,10.736298 -10.7363,10.736298 -5.93283,-6e-6 -10.73629,-4.803432 -10.73629,-10.736298 1e-5,-5.9328608 4.80342,-10.7362888 10.73629,-10.7362938 z" style="fill:#000000;fill-opacity:1;fill-rule:nonzero;stroke:none;stroke-width:0.0811389" />
      </g>
      </g></g></svg>