<?xml version='1.0' encoding='utf-8'?>
<svg xmlns="http://www.w3.org/2000/svg" xmlns:ns1="http://www.inkscape.org/namespaces/inkscape" viewBox="35.06050452 9.25805132 28.44599096 28.44599096" width="100" height="100" version="1.1"><g ns1:label="Layer 1" ns1:groupmode="layer" id="layer1" transform="translate(0,7.8000168)"><g id="g3003"><g transform="translate(-396.48708,-127.37871)" id="g916">
        <path style="fill:#000000;fill-opacity:1;fill-rule:nonzero;stroke:none;stroke-width:0.0811389" d="m 445.77134,154.29705 c -6.20306,-1e-5 -11.23807,-5.03553 -11.23807,-11.23859 0,-6.20307 5.03501,-11.236 11.23807,-11.23601 6.20309,-1e-5 11.23654,5.03293 11.23654,11.23601 0,6.20307 -5.03345,11.23859 -11.23654,11.23859 z m 0,-0.5023 c 5.93289,1e-5 10.73631,-4.80345 10.73631,-10.73629 0,-5.93286 -4.80344,-10.7363 -10.73631,-10.7363 -5.93283,1e-5 -10.73629,4.80343 -10.73629,10.7363 10e-6,5.93286 4.80342,10.73629 10.73629,10.73629 z" id="path889" />
        <path id="path907" d="m 442.53571,134.98657 c -0.69697,-0.002 -1.41089,0.35253 -1.92118,1.19312 l -0.18561,0.3077 0.35485,0.0486 c 0.74042,0.10126 1.01378,0.36126 1.13653,0.57223 0.11093,0.19063 0.093,0.31776 0.0903,0.33947 -2.3034,2.79158 -2.29307,4.7317 -2.34501,6.92339 l -1.1008,-0.70127 v 0.42931 c 1.1e-4,3.93698 3.16963,7.13383 7.2048,7.13381 4.03517,-1e-5 7.20668,-3.19682 7.20677,-7.13382 v -0.4293 l -1.10327,0.70127 c -0.0519,-2.19203 -0.038,-4.13307 -2.34254,-6.92538 -2.6e-4,-0.005 -0.0217,-0.14589 0.0898,-0.33748 0.12275,-0.21095 0.39461,-0.47097 1.13504,-0.57223 l 0.35635,-0.0486 -0.18561,-0.3077 c -0.51031,-0.84058 -1.22614,-1.1954 -1.92318,-1.19312 -0.88185,0.003 -1.6318,0.70507 -2.13061,1.29038 -0.20202,-0.0804 -0.42091,-0.14298 -0.62484,-0.17022 -0.24593,-0.0328 -0.42731,-0.039 -0.44618,-0.0397 l -0.0318,-0.006 -0.0303,0.006 c -0.0188,6.7e-4 -0.20009,0.007 -0.44618,0.0397 -0.20346,0.0271 -0.42323,0.0902 -0.62483,0.17022 -0.49881,-0.58532 -1.25067,-1.28763 -2.13261,-1.29038 z m 3.2339,3.79472 c 1.42129,0.4217 2.08108,1.18708 2.45718,2.13856 0.30553,0.77298 0.39459,1.67855 0.52509,2.56041 -0.52812,-0.57686 -1.0795,-1.11847 -1.72961,-1.35986 l -0.41044,-0.15187 0.0973,0.42583 c 0.52652,2.30746 1.18299,4.3949 -0.93949,8.13684 -2.12243,-3.74189 -1.46453,-5.8294 -0.93801,-8.13684 l 0.0973,-0.42583 -0.41046,0.15187 c -0.65051,0.24155 -1.20323,0.78443 -1.7316,1.36185 0.13063,-0.88247 0.21935,-1.78888 0.5251,-2.5624 0.37594,-0.95107 1.03768,-1.71674 2.45768,-2.13856 z" style="color:#000000;font-style:normal;font-variant:normal;font-weight:normal;font-stretch:normal;font-size:medium;line-height:normal;font-family:sans-serif;font-variant-ligatures:normal;font-variant-position:normal;font-variant-caps:normal;font-variant-numeric:normal;font-variant-alternates:normal;font-feature-settings:normal;text-indent:0;text-align:start;text-decoration:none;text-decoration-line:none;text-decoration-style:solid;text-decoration-color:#000000;letter-spacing:normal;word-spacing:normal;text-transform:none;writing-mode:lr-tb;direction:ltr;text-orientation:mixed;dominant-baseline:auto;baseline-shift:baseline;text-anchor:start;white-space:normal;shape-padding:0;clip-rule:nonzero;display:inline;overflow:visible;visibility:visible;isolation:auto;mix-blend-mode:normal;color-interpolation:sRGB;color-interpolation-filters:linearRGB;solid-color:#000000;solid-opacity:1;vector-effect:none;fill:#000000;fill-opacity:1;fill-rule:nonzero;stroke:none;stroke-width:0.04802;stroke-linecap:butt;stroke-linejoin:miter;stroke-miterlimit:4;stroke-dasharray:none;stroke-dashoffset:0;stroke-opacity:1;color-rendering:auto;image-rendering:auto;shape-rendering:auto;text-rendering:auto;enable-background:accumulate" />
      </g>
    </g></g></svg>