<?xml version='1.0' encoding='utf-8'?>
<svg xmlns="http://www.w3.org/2000/svg" xmlns:ns1="http://www.inkscape.org/namespaces/inkscape" viewBox="134.54427452 9.25841132 28.44599096 28.44599096" width="100" height="100" version="1.1"><g ns1:label="Layer 1" ns1:groupmode="layer" id="layer1" transform="translate(0,7.8000168)"><g id="g3003"><g id="g1328">
        <path d="m 150.12364,14.32571 a 0.47323711,0.4732371 0 0 1 0,0.66926 0.47323711,0.4732371 0 0 1 -0.66926,0 0.47323711,0.4732371 0 0 1 0,-0.66926 0.47323711,0.4732371 0 0 1 0.66926,0 z m -1.35562,-0.56152 a 0.47323711,0.4732371 0 0 1 0.47323,0.47324 0.47323711,0.4732371 0 0 1 -0.47323,0.47323 0.47323711,0.4732371 0 0 1 -0.47325,-0.47323 0.47323711,0.4732371 0 0 1 0.47325,-0.47324 z m -1.35562,0.56152 a 0.47323711,0.4732371 0 0 1 0.66927,0 0.47323711,0.4732371 0 0 1 0,0.66926 0.47323711,0.4732371 0 0 1 -0.66927,0 0.47323711,0.4732371 0 0 1 0,-0.66926 z m -0.5615,1.35562 a 0.47323711,0.4732371 0 0 1 0.47324,-0.47324 0.47323711,0.4732371 0 0 1 0.47324,0.47324 0.47323711,0.4732371 0 0 1 -0.47324,0.47324 0.47323711,0.4732371 0 0 1 -0.47324,-0.47324 z m 0.5615,1.35563 a 0.47323711,0.4732371 0 0 1 0,-0.66926 0.47323711,0.4732371 0 0 1 0.66927,0 0.47323711,0.4732371 0 0 1 0,0.66926 0.47323711,0.4732371 0 0 1 -0.66927,0 z m 1.35561,0.56152 a 0.47323711,0.4732371 0 0 1 -0.47324,-0.47324 0.47323711,0.4732371 0 0 1 0.47325,-0.47323 0.47323711,0.4732371 0 0 1 0.47323,0.47323 0.47323711,0.4732371 0 0 1 -0.47324,0.47324 z m 1.35563,-0.56152 a 0.47323711,0.4732371 0 0 1 -0.66925,0 0.47323711,0.4732371 0 0 1 0,-0.66926 0.47323711,0.4732371 0 0 1 0.66925,0 0.47323711,0.4732371 0 0 1 0,0.66926 z m 0.56152,-1.35563 a 0.47323711,0.4732371 0 0 1 -0.47323,0.47324 0.47323711,0.4732371 0 0 1 -0.47324,-0.47324 0.47323711,0.4732371 0 0 1 0.47324,-0.47324 0.47323711,0.4732371 0 0 1 0.47323,0.47324 z m -1.44391,0 a 0.47323711,0.4732371 0 0 1 -0.47323,0.47324 0.47323711,0.4732371 0 0 1 -0.47324,-0.47324 0.47323711,0.4732371 0 0 1 0.47324,-0.47324 0.47323711,0.4732371 0 0 1 0.47323,0.47324 z M 146.52664,7.0558 c -0.13829,9.4e-4 -0.25902,0.0212 -0.35553,0.069 -0.14217,0.0564 -0.28198,0.12014 -0.38722,0.25425 -0.10415,0.13272 -0.17209,0.33796 -0.17871,0.66684 -0.23717,-0.2278 -0.43036,-0.32461 -0.59784,-0.3448 -0.16945,-0.0204 -0.31307,0.0331 -0.45363,0.0938 -0.27219,0.0917 -0.52674,0.44473 -0.79019,0.85347 -0.26341,0.40873 -0.53541,0.87346 -0.83776,1.19103 -0.31756,0.30221 -0.78243,0.57426 -1.19102,0.8376 -0.40874,0.26343 -0.76159,0.51798 -0.85331,0.79016 -0.0607,0.1404 -0.11423,0.2846 -0.0938,0.45382 0.0203,0.16747 0.11699,0.35998 0.34478,0.59715 -0.32886,0.007 -0.53358,0.0751 -0.66631,0.17922 -0.134,0.10517 -0.19789,0.24516 -0.25424,0.38723 -0.12762,0.25731 -0.0583,0.68642 0.0442,1.16171 0.10274,0.47529 0.23969,0.99658 0.25044,1.43493 -0.0108,0.43834 -0.1477,0.95963 -0.25044,1.43492 -0.10276,0.47529 -0.17196,0.9044 -0.0442,1.16171 l -0.002,1.2e-4 c 0.0565,0.14236 0.12067,0.28186 0.25494,0.38723 0.13271,0.10416 0.33745,0.1726 0.66631,0.17922 -0.22778,0.23718 -0.32478,0.42968 -0.34497,0.59715 -0.0205,0.16945 0.0332,0.31393 0.094,0.45451 0.092,0.27203 0.44478,0.52618 0.85331,0.78947 0.40856,0.26334 0.87346,0.53538 1.19102,0.8376 0.30235,0.31757 0.57434,0.78299 0.83777,1.19172 0.26344,0.40874 0.51795,0.76108 0.79018,0.85278 0.14057,0.0607 0.28418,0.11427 0.45363,0.0938 0.16748,-0.0202 0.36066,-0.117 0.59784,-0.3448 0.01,0.32941 0.0744,0.534 0.17867,0.66684 0.10526,0.13411 0.24507,0.19785 0.38727,0.25425 0.2573,0.12762 0.68709,0.0584 1.16239,-0.0443 0.4751,-0.1027 0.99602,-0.23942 1.43424,-0.25028 1.9e-4,0 3.6e-4,-10e-6 0.002,-1.2e-4 0.43821,0.0109 0.95896,0.14758 1.43405,0.25028 0.47499,0.10268 0.90452,0.17162 1.16189,0.0443 0.14237,-0.0564 0.28239,-0.11998 0.38777,-0.25425 0.10422,-0.13285 0.17215,-0.33743 0.17867,-0.66684 0.23719,0.2278 0.43038,0.32461 0.59784,0.34481 0.16945,0.0204 0.31308,-0.0331 0.45364,-0.0938 0.27222,-0.0917 0.52674,-0.44405 0.79017,-0.85278 0.26343,-0.40874 0.53542,-0.87416 0.83777,-1.19172 0.31756,-0.30222 0.78246,-0.57427 1.19103,-0.8376 0.4084,-0.26319 0.76072,-0.51757 0.8528,-0.78948 0.0609,-0.14058 0.11496,-0.28505 0.0944,-0.45451 -0.0203,-0.16746 -0.11718,-0.35997 -0.34497,-0.59715 0.32887,-0.006 0.5336,-0.0751 0.66631,-0.17922 0.13427,-0.10537 0.19851,-0.24486 0.25495,-0.38723 l -0.002,1.2e-4 c 0.12763,-0.25731 0.0583,-0.68642 -0.0443,-1.16171 -0.10275,-0.47529 -0.23953,-0.99658 -0.25028,-1.43493 0.0108,-0.43834 0.14753,-0.95963 0.25028,-1.43492 0.10275,-0.4753 0.17195,-0.9044 0.0443,-1.16171 -0.0564,-0.14207 -0.12025,-0.28207 -0.25425,-0.38724 -0.13273,-0.10414 -0.33744,-0.17259 -0.66631,-0.17921 0.22779,-0.23718 0.32477,-0.42968 0.34497,-0.59715 0.0204,-0.16945 -0.0339,-0.31393 -0.0944,-0.45451 -0.0922,-0.27191 -0.44443,-0.52628 -0.8528,-0.78947 -0.40859,-0.26334 -0.87345,-0.53539 -1.19102,-0.8376 -0.30235,-0.31757 -0.57434,-0.7823 -0.83776,-1.19103 -0.26344,-0.40874 -0.518,-0.76177 -0.79019,-0.85347 -0.14056,-0.0607 -0.28418,-0.11427 -0.45363,-0.0938 -0.16748,0.0202 -0.36067,0.117 -0.59783,0.3448 -0.009,-0.32888 -0.0746,-0.53412 -0.17872,-0.66684 -0.10524,-0.13412 -0.24505,-0.19785 -0.38722,-0.25425 l -0.002,1.2e-4 c -0.25737,-0.12729 -0.68673,-0.0583 -1.16173,0.0443 -0.47507,0.1027 -0.996,0.23942 -1.43422,0.25028 -1.9e-4,0 -3.5e-4,10e-6 -0.002,1.2e-4 -0.43822,-0.0109 -0.959,-0.14758 -1.43408,-0.25028 -0.23765,-0.0514 -0.46412,-0.0941 -0.66304,-0.10832 -0.0498,-0.004 -0.0977,-0.005 -0.14387,-0.005 z m 0.76755,1.06443 c 0.32301,0.0124 0.80055,0.29409 1.4739,0.97731 3.91776,-3.9751 1.20634,5.64389 0,2.79569 -0.99899,2.35866 -3.03016,-3.83263 -1.4739,-3.773 z m -2.49348,1.01647 c 1.22222,0.0433 3.43217,4.72997 1.28192,3.85924 1.16099,2.86699 -7.55797,-2.01743 -1.9769,-1.97688 -0.0102,-1.39527 0.28757,-1.89678 0.69498,-1.88236 z m 7.93462,0 c 0.40741,-0.0144 0.70508,0.48709 0.69494,1.88236 5.58109,-0.0406 -3.13784,4.84387 -1.97688,1.97688 -2.15024,0.87073 0.0597,-3.81598 1.28194,-3.85924 z m -3.96724,4.1028 a 2.4418698,2.4418697 0 0 1 2.44175,2.44191 2.4418698,2.4418697 0 0 1 -2.44175,2.44173 2.4418698,2.4418697 0 0 1 -2.4419,-2.44173 2.4418698,2.4418697 0 0 1 2.4419,-2.44191 z m -6.57263,0.40052 c 1.62622,0.0122 4.52008,1.30628 2.78445,2.04139 2.84821,1.20633 -6.77075,3.91775 -2.79566,0 -1.5528,-1.53038 -1.03125,-2.04925 0.0112,-2.04139 z m 13.14511,-10e-6 c 1.04245,-0.008 1.564,0.51103 0.0112,2.0414 3.97511,3.91775 -5.64388,1.20633 -2.79569,0 -1.7356,-0.73511 1.15827,-2.02915 2.78447,-2.0414 z m -9.75849,3.8251 c 0.50203,-0.0164 0.77265,0.22964 0.50055,0.90159 2.867,-1.16097 -2.01743,7.55797 -1.9769,1.97688 -4.273,0.0311 -0.16363,-2.82477 1.47635,-2.87847 z m 6.37187,0 c 1.63996,0.0537 5.74936,2.90952 1.47632,2.87847 0.0406,5.58109 -4.84386,-3.13785 -1.97688,-1.97688 -0.27209,-0.67195 -0.004,-0.91804 0.50056,-0.90159 z m -3.69296,1.46976 c 0.18194,0.0173 0.35632,0.17852 0.5071,0.53455 1.20634,-2.8482 3.91776,6.77078 0,2.79568 -3.42802,3.47821 -1.78066,-3.4515 -0.5071,-3.33023 z" style="fill:#000000;fill-opacity:1;fill-rule:nonzero;stroke:none;stroke-width:0.0735731;stroke-linejoin:round;stroke-miterlimit:4;stroke-dasharray:none;stroke-dashoffset:0;stroke-opacity:1" id="path151" />
        <path id="path1297" d="m 148.76805,4.444096 c -6.20306,8e-6 -11.23807,5.035526 -11.23807,11.23859 0,6.203071 5.03501,11.236 11.23807,11.236008 6.20308,5e-6 11.23653,-5.032929 11.23653,-11.236008 0,-6.203072 -5.03345,-11.238595 -11.23653,-11.23859 z m 0,0.502296 c 5.93288,-6e-6 10.7363,4.803447 10.7363,10.736294 0,5.932855 -4.80344,10.736298 -10.7363,10.736298 -5.93283,-6e-6 -10.73629,-4.803432 -10.73629,-10.736298 1e-5,-5.932861 4.80342,-10.736289 10.73629,-10.736294 z" style="fill:#000000;fill-opacity:1;fill-rule:nonzero;stroke:none;stroke-width:0.0811389" />
      </g>
      </g></g></svg>