<?xml version='1.0' encoding='utf-8'?>
<svg xmlns="http://www.w3.org/2000/svg" xmlns:ns1="http://www.inkscape.org/namespaces/inkscape" viewBox="109.67359452 9.25826432 28.44599096 28.44599096" width="100" height="100" version="1.1"><g ns1:label="Layer 1" ns1:groupmode="layer" id="layer1" transform="translate(0,7.8000168)"><g id="g3003"><g id="g1323">
        <path id="path145" d="m 123.27312,6.921313 v 1.4578 c -1.55315,0.13146 -2.96942,0.74933 -4.09639,1.70067 l -1.03249,-1.0325 -0.88315,0.88109 1.03352,1.03352 c -0.95048,1.12673 -1.56735,2.54257 -1.69911,4.09484 h -1.4578 v 1.24954 h 1.4578 c 0.13176,1.55229 0.74863,2.96802 1.69911,4.09484 l -1.03352,1.03353 0.88315,0.8816 1.03249,-1.0325 c 1.12696,0.95141 2.54328,1.56868 4.09639,1.70016 v 1.45728 h 1.24696 v -1.45728 c 1.5527,-0.13177 2.96894,-0.74892 4.09587,-1.70016 l 1.03249,1.0325 0.88367,-0.8816 -1.03404,-1.03405 c 0.95064,-1.12677 1.56782,-2.54216 1.69963,-4.09432 h 1.4578 v -1.24954 h -1.4578 c -0.13181,-1.55214 -0.74899,-2.96764 -1.69963,-4.09432 l 1.03404,-1.03404 -0.88367,-0.88109 -1.03249,1.0325 c -1.12694,-0.95116 -2.54315,-1.5684 -4.09587,-1.70016 v -1.45831 z m -5.1e-4,2.71043 c 1.7e-4,-10e-6 3.4e-4,2e-5 5.1e-4,0 v 4.11603 c -0.10449,0.034 -0.20482,0.0773 -0.30127,0.12712 l -2.91455,-2.91455 c 0.8949,-0.72779 2.00125,-1.20584 3.21531,-1.3286 z m 1.24747,0 c 1.21386,0.12294 2.32032,0.60087 3.2153,1.3286 l -2.91506,2.91507 c -0.0962,-0.0497 -0.19608,-0.0926 -0.30024,-0.12661 z m -5.3449,2.21072 2.91507,2.91558 c -0.0493,0.0956 -0.0923,0.19517 -0.12609,0.29869 h -4.1181 c 0.12304,-1.21371 0.60138,-2.31965 1.32912,-3.21427 z m 9.44232,5.2e-4 c 0.72778,0.89453 1.20656,2.00028 1.32963,3.21375 h -4.11861 c -0.0338,-0.10352 -0.0767,-0.20305 -0.12609,-0.29869 z m -4.72167,2.93832 c 0.50249,0 0.9002,0.39769 0.9002,0.9002 0,0.50252 -0.39771,0.90072 -0.9002,0.90072 -0.50254,0 -0.89866,-0.3982 -0.89866,-0.90072 0,-0.50251 0.39612,-0.9002 0.89866,-0.9002 z m -6.04977,1.52497 h 4.1181 c 0.0338,0.10368 0.0767,0.20343 0.12609,0.29921 l -2.91507,2.91507 c -0.72774,-0.89463 -1.20608,-2.00057 -1.32912,-3.21428 z m 7.98246,0 h 4.11861 c -0.12307,1.21347 -0.60185,2.31923 -1.32963,3.21376 l -2.91507,-2.91455 c 0.0495,-0.0958 0.0922,-0.19553 0.12609,-0.29921 z m -1.0082,1.18184 2.91455,2.91455 c -0.89493,0.72759 -2.00107,1.20568 -3.21479,1.3286 v -4.11706 c 0.10416,-0.034 0.20406,-0.0763 0.30024,-0.12609 z m -1.84847,5.2e-4 c 0.0964,0.0498 0.19678,0.0925 0.30127,0.1266 v 4.11603 c -1.21411,-0.12266 -2.32033,-0.60085 -3.2153,-1.3286 z" style="color:#000000;font-style:normal;font-variant:normal;font-weight:normal;font-stretch:normal;font-size:medium;line-height:normal;font-family:sans-serif;font-variant-ligatures:normal;font-variant-position:normal;font-variant-caps:normal;font-variant-numeric:normal;font-variant-alternates:normal;font-feature-settings:normal;text-indent:0;text-align:start;text-decoration:none;text-decoration-line:none;text-decoration-style:solid;text-decoration-color:#000000;letter-spacing:normal;word-spacing:normal;text-transform:none;writing-mode:lr-tb;direction:ltr;text-orientation:mixed;dominant-baseline:auto;baseline-shift:baseline;text-anchor:start;white-space:normal;shape-padding:0;clip-rule:nonzero;display:inline;overflow:visible;visibility:visible;isolation:auto;mix-blend-mode:normal;color-interpolation:sRGB;color-interpolation-filters:linearRGB;solid-color:#000000;solid-opacity:1;vector-effect:none;fill:#000000;fill-opacity:1;fill-rule:nonzero;stroke:none;stroke-width:1.04945;stroke-linecap:butt;stroke-linejoin:round;stroke-miterlimit:4;stroke-dasharray:none;stroke-dashoffset:0;stroke-opacity:1;color-rendering:auto;image-rendering:auto;shape-rendering:auto;text-rendering:auto;enable-background:accumulate" />
        <path id="path1299" d="m 123.89737,4.443949 c -6.20306,8e-6 -11.23807,5.035526 -11.23807,11.23859 0,6.203071 5.03501,11.236 11.23807,11.236008 6.20308,5e-6 11.23653,-5.032929 11.23653,-11.236008 0,-6.203072 -5.03345,-11.238595 -11.23653,-11.23859 z m 0,0.502296 c 5.93288,-6e-6 10.7363,4.803447 10.7363,10.736294 0,5.932855 -4.80344,10.736298 -10.7363,10.736298 -5.93283,-6e-6 -10.73629,-4.803432 -10.73629,-10.736298 1e-5,-5.932861 4.80342,-10.736289 10.73629,-10.736294 z" style="fill:#000000;fill-opacity:1;fill-rule:nonzero;stroke:none;stroke-width:0.0811389" />
      </g>
      </g></g></svg>